<?xml version="1.0" encoding="UTF-8" standalone="no"?>
<svg
   width="136.76001"
   height="162.34799"
   xml:space="preserve"
   overflow="hidden"
   version="1.1"
   id="svg100"
   sodipodi:docname="Imagen1.svg"
   xmlns:inkscape="http://www.inkscape.org/namespaces/inkscape"
   xmlns:sodipodi="http://sodipodi.sourceforge.net/DTD/sodipodi-0.dtd"
   xmlns="http://www.w3.org/2000/svg"
   xmlns:svg="http://www.w3.org/2000/svg"><sodipodi:namedview
     id="namedview102"
     pagecolor="#ffffff"
     bordercolor="#000000"
     borderopacity="0.25"
     inkscape:showpageshadow="2"
     inkscape:pageopacity="0.0"
     inkscape:pagecheckerboard="0"
     inkscape:deskcolor="#d1d1d1"
     showgrid="false" /><defs
     id="defs56"><clipPath
       id="clip0"><rect
         x="0"
         y="-3"
         width="2137"
         height="1171"
         id="rect53" /></clipPath></defs><g
     clip-path="url(#clip0)"
     transform="translate(-666.336,-222.96201)"
     id="g98"><path
       d="M 860,45.1677 C 860,20.2223 880.222,0 905.168,0 H 1231.83 C 1256.78,0 1277,20.2223 1277,45.1677 V 225.832 C 1277,250.778 1256.78,271 1231.83,271 H 905.168 C 880.222,271 860,250.778 860,225.832 Z"
       stroke="#ffffff"
       stroke-width="5.72917"
       stroke-linejoin="round"
       stroke-miterlimit="10"
       fill="#b71e42"
       fill-rule="evenodd"
       id="path58" /><text
       fill="#ffffff"
       font-family="'Gill Sans MT', 'Gill Sans MT_MSFontService', sans-serif"
       font-weight="400"
       font-size="50px"
       transform="translate(966.98,71)"
       id="text60">El jugador </text><text
       fill="#ffffff"
       font-family="'Gill Sans MT', 'Gill Sans MT_MSFontService', sans-serif"
       font-weight="400"
       font-size="50px"
       transform="translate(952.29,124)"
       id="text62">observa los </text><text
       fill="#ffffff"
       font-family="'Gill Sans MT', 'Gill Sans MT_MSFontService', sans-serif"
       font-weight="400"
       font-size="50px"
       transform="translate(985.519,176)"
       id="text64">caminos </text><text
       fill="#ffffff"
       font-family="'Gill Sans MT', 'Gill Sans MT_MSFontService', sans-serif"
       font-weight="400"
       font-size="50px"
       transform="translate(955.888,229)"
       id="text66">disponibles</text><path
       d="m 1334.03,221.716 20.29,16.061 19.38,17.187 18.27,18.258 17.19,19.258 16.06,20.265 14.87,21.077 13.68,22.021 10.78,19.744 -3.02,1.647 -10.68,-19.577 -13.57,-21.854 -14.75,-20.923 -15.94,-20.111 -17.06,-19.116 -18.11,-18.117 -19.24,-17.064 -20.28,-16.061 z m 131.64,122.92 -1,34.769 -29.77,-17.981 c -0.82,-0.491 -1.08,-1.547 -0.59,-2.36 0.5,-0.812 1.55,-1.073 2.36,-0.583 l 27.26,16.458 -2.61,1.422 0.91,-31.823 c 0.03,-0.949 0.82,-1.696 1.77,-1.669 0.95,0.027 1.7,0.818 1.67,1.767 z"
       fill="#b71e42"
       id="path68" /><path
       d="M 1305,485.001 C 1305,460.148 1325.15,440 1350,440 h 326 c 24.85,0 45,20.148 45,45.001 v 179.998 c 0,24.853 -20.15,45.001 -45,45.001 h -326 c -24.85,0 -45,-20.148 -45,-45.001 z"
       stroke="#ffffff"
       stroke-width="5.72917"
       stroke-linejoin="round"
       stroke-miterlimit="10"
       fill="#b71e42"
       fill-rule="evenodd"
       id="path70" /><text
       fill="#ffffff"
       font-family="'Gill Sans MT', 'Gill Sans MT_MSFontService', sans-serif"
       font-weight="400"
       font-size="50px"
       transform="translate(1338.19,537)"
       id="text72">El jugador avanza </text><text
       fill="#ffffff"
       font-family="'Gill Sans MT', 'Gill Sans MT_MSFontService', sans-serif"
       font-weight="400"
       font-size="50px"
       transform="translate(1364.16,590)"
       id="text74">por un camino </text><text
       fill="#ffffff"
       font-family="'Gill Sans MT', 'Gill Sans MT_MSFontService', sans-serif"
       font-weight="400"
       font-size="50px"
       transform="translate(1341.86,642)"
       id="text76">buscando la llave</text><path
       d="m 1472.1,775.877 -12.25,24.273 -13.81,23.471 -15.11,22.525 -16.44,21.583 -17.69,20.518 -18.94,19.452 -20.14,18.322 -18.67,14.94 -2.14,-2.684 18.5,-14.798 19.98,-18.178 18.81,-19.298 17.56,-20.357 16.31,-21.417 15.01,-22.35 13.7,-23.279 12.26,-24.272 z m -102.37,160.787 -34.41,5.086 12.51,-32.456 c 0.34,-0.885 1.33,-1.327 2.22,-0.985 0.88,0.341 1.32,1.336 0.98,2.222 l -11.45,29.706 -1.85,-2.318 31.49,-4.656 c 0.94,-0.139 1.82,0.51 1.96,1.449 0.13,0.939 -0.51,1.813 -1.45,1.952 z"
       fill="#b71e42"
       id="path78" /><path
       d="M 860,940.001 C 860,915.148 880.148,895 905.001,895 H 1232 c 24.85,0 45,20.148 45,45.001 V 1120 c 0,24.85 -20.15,45 -45,45 H 905.001 C 880.148,1165 860,1144.85 860,1120 Z"
       stroke="#ffffff"
       stroke-width="5.72917"
       stroke-linejoin="round"
       stroke-miterlimit="10"
       fill="#b71e42"
       fill-rule="evenodd"
       id="path80" /><text
       fill="#ffffff"
       font-family="'Gill Sans MT', 'Gill Sans MT_MSFontService', sans-serif"
       font-weight="400"
       font-size="50px"
       transform="translate(915.291,992)"
       id="text82">Los monstruos </text><text
       fill="#ffffff"
       font-family="'Gill Sans MT', 'Gill Sans MT_MSFontService', sans-serif"
       font-weight="400"
       font-size="50px"
       transform="translate(947.283,1045)"
       id="text84">persiguen al </text><text
       fill="#ffffff"
       font-family="'Gill Sans MT', 'Gill Sans MT_MSFontService', sans-serif"
       font-weight="400"
       font-size="50px"
       transform="translate(992.108,1097)"
       id="text86">jugador</text><path
       d="m 802.027,943.961 -20.964,-16.485 -19.953,-17.69 -18.886,-18.819 -17.635,-19.889 -16.5,-20.888 -15.25,-21.895 -13.93,-22.773 -10.976,-20.635 3.035,-1.614 10.873,20.455 13.82,22.602 15.125,21.73 16.375,20.737 17.49,19.736 18.739,18.681 19.797,17.56 20.965,16.485 z M 666.48,815.825 l 1.369,-34.757 29.58,18.3 c 0.808,0.499 1.057,1.558 0.558,2.366 -0.5,0.807 -1.559,1.056 -2.366,0.557 l -27.075,-16.749 2.622,-1.394 -1.253,31.812 c -0.037,0.948 -0.837,1.687 -1.785,1.65 -0.948,-0.038 -1.687,-0.837 -1.65,-1.785 z"
       fill="#b71e42"
       id="path88" /><path
       d="M 413,492.168 C 413,467.222 433.222,447 458.168,447 H 783.832 C 808.778,447 829,467.222 829,492.168 V 672.832 C 829,697.778 808.778,718 783.832,718 H 458.168 C 433.222,718 413,697.778 413,672.832 Z"
       stroke="#ffffff"
       stroke-width="5.72917"
       stroke-linejoin="round"
       stroke-miterlimit="10"
       fill="#b71e42"
       fill-rule="evenodd"
       id="path90" /><text
       fill="#ffffff"
       font-family="'Gill Sans MT', 'Gill Sans MT_MSFontService', sans-serif"
       font-weight="400"
       font-size="50px"
       transform="translate(475.863,571)"
       id="text92">Se desbloquea </text><text
       fill="#ffffff"
       font-family="'Gill Sans MT', 'Gill Sans MT_MSFontService', sans-serif"
       font-weight="400"
       font-size="50px"
       transform="translate(464.359,624)"
       id="text94">una nueva zona</text><path
       d="m 666.336,383.693 12.522,-23.501 13.926,-22.776 15.243,-21.898 16.499,-20.896 17.625,-19.887 18.886,-18.827 19.948,-17.694 18.368,-14.489 2.129,2.699 -18.217,14.362 -19.802,17.556 -18.739,18.673 -17.5,19.738 -16.376,20.729 -15.132,21.727 -13.824,22.599 -12.522,23.502 z m 102.316,-155.888 34.444,-4.843 -12.739,32.367 c -0.348,0.883 -1.346,1.317 -2.229,0.969 -0.883,-0.347 -1.317,-1.345 -0.97,-2.228 l 11.66,-29.625 1.839,2.331 -31.527,4.433 c -0.94,0.132 -1.809,-0.523 -1.941,-1.463 -0.132,-0.94 0.523,-1.809 1.463,-1.941 z"
       fill="#b71e42"
       id="path96"
       inkscape:export-filename="A1L"
       inkscape:export-xdpi="96"
       inkscape:export-ydpi="96" /></g></svg>
