<svg width="24" height="24" viewBox="0 0 24 24" fill="none" xmlns="http://www.w3.org/2000/svg">
<g id="24 / security / lock">
<path id="icon" fill-rule="evenodd" clip-rule="evenodd" d="M7 7V10H6C4.93165 10 4 10.7764 4 11.8333V20.1667C4 21.2236 4.93165 22 6 22H18C19.0684 22 20 21.2236 20 20.1667V11.8333C20 10.7764 19.0684 10 18 10H17V7C17 4.23858 14.7614 2 12 2C9.23858 2 7 4.23858 7 7ZM15 7V10H9V7C9 5.34315 10.3431 4 12 4C13.6569 4 15 5.34315 15 7ZM6 20V12H18V20H6ZM12 17C12.5523 17 13 16.5523 13 16C13 15.4477 12.5523 15 12 15C11.4477 15 11 15.4477 11 16C11 16.5523 11.4477 17 12 17Z" fill="black"/>
</g>
</svg>
